<svg xmlns="http://www.w3.org/2000/svg" viewBox="0 0 128 128" id="Award"><circle cx="64" cy="64" r="60" fill="#8526fe" class="color382673 svgShape"></circle><circle cx="64" cy="64" r="50" fill="#673080" class="color473080 svgShape"></circle><path fill="#ad59d4" d="M91 55.1c-15-5.5-29.8-11.9-44.3-19.3-8.7 23-13.5 47.9-13.7 73.7 8.1-3.9 16.3-7.5 24.6-10.7 7.7 5.5 15.7 10.4 23.7 14.5-.2-20.5 3.2-40.2 9.7-58.2z" class="colord44a90 svgShape"></path><path fill="#7f29a7" d="M37.6 67.1c.7.6 1.5 1.1 2.4 1.3 3.2.8 5.5 4.3 5.6 8.5.3 6.4 5.8 10 10.1 7 2.9-1.9 6.4-1 8.6 1.8 3.4 4.4 9.4 3.1 11.4-1.8 1.4-3.2 4.7-4.8 7.8-4 .2.1.4.1.6.1 1.6-8.6 3.9-17 6.8-25-15-5.5-29.8-11.9-44.3-19.3-3.7 10.2-6.8 20.6-9 31.4z" class="colora72973 svgShape"></path><path fill="#c15af1" d="M87.3 53.7C74.8 49 62.5 43.6 50.4 37.6c-8.2 21.8-12.9 45.5-13.3 70 6.8-3.1 13.6-6.1 20.5-8.8 6.4 4.6 13 8.7 19.7 12.4 0-20.3 3.5-39.7 10-57.5z" class="colorf15a9e svgShape"></path><path fill="#ad59d4" d="M45.6 76.9c.3 6.4 5.7 8.8 10.1 5.8 2.9-1.9 6.4-1 8.6 1.9 3.3 4.4 9.5 4.3 11.5-.7.9-2 2.5-3.4 4.4-4 1.7-9.1 4.1-17.9 7.1-26.3-12.5-4.6-24.8-10-36.9-16-3.8 10.1-6.8 20.5-9.1 31.3 2.5 1.4 4.2 4.4 4.3 8z" class="colord44a90 svgShape"></path><path fill="#5fe4d4" d="M78.4 17.8c4.4-2.3 9.8.8 10 5.8.2 3.3 2.6 5.9 5.8 6.4 4.9.8 7.4 6.4 4.7 10.6-1.8 2.7-1.4 6.3.9 8.6 3.5 3.5 2.3 9.5-2.4 11.3-3 1.2-4.8 4.3-4.3 7.5.8 4.9-3.8 9-8.6 7.8-3.2-.8-6.5.6-7.9 3.6-2.3 4.5-8.4 5.1-11.5 1.2-2.1-2.5-5.6-3.3-8.5-1.8-4.4 2.3-9.8-.8-10-5.8-.2-3.3-2.6-5.9-5.8-6.4-4.9-.8-7.4-6.4-4.7-10.6 1.8-2.7 1.4-6.3-.9-8.6-3.5-3.5-2.3-9.5 2.4-11.3 3-1.2 4.8-4.3 4.3-7.5-.8-4.9 3.8-9 8.6-7.8 3.2.8 6.5-.6 7.9-3.6 2.3-4.5 8.4-5.1 11.5-1.2 2 2.5 5.6 3.2 8.5 1.8z" class="color00c2a9 svgShape"></path><circle cx="67.5" cy="48.3" r="24" fill="#00a591" transform="rotate(-78.13 67.506 48.262)" class="color00a58c svgShape"></circle><path fill="#037c6d" d="M44.6 45.5C47.3 32.5 60 24.2 73 26.9c8.8 1.9 15.5 8.3 18 16.3-1.9-9-9-16.5-18.5-18.5-13-2.7-25.8 5.7-28.5 18.6-.9 4.2-.6 8.3.6 12.1-.7-3.2-.7-6.5 0-9.9z" class="color037c68 svgShape"></path><path fill="#ffffff" d="m65.4 49-4.9-7.6c-.3-.5-.9-.6-1.4-.3L54.6 44c-.5.3-.6.9-.3 1.4l9 13.7c.3.5.9.6 1.4.3l17.8-11.6c.5-.3.6-.9.3-1.4l-2.9-4.5c-.3-.5-.9-.6-1.4-.3l-11.7 7.6c-.5.4-1.1.2-1.4-.2z" class="colorffffff svgShape"></path><path fill="#d8a353" d="M22.4 49.5 23 48c.2-.4.8-.4.9 0l.6 1.5c.5 1.2 1.4 2.1 2.6 2.6l1.5.6c.4.2.4.8 0 .9l-1.6.5c-1.2.5-2.1 1.4-2.6 2.6l-.6 1.5c-.2.4-.8.4-.9 0l-.6-1.5c-.5-1.2-1.4-2.1-2.6-2.6l-1.5-.6c-.4-.2-.4-.8 0-.9l1.5-.6c1.3-.4 2.2-1.4 2.7-2.5zm71 40L94 88c.2-.4.8-.4.9 0l.6 1.5c.5 1.2 1.4 2.1 2.6 2.6l1.5.6c.4.2.4.8 0 .9l-1.6.5c-1.2.5-2.1 1.4-2.6 2.6l-.6 1.5c-.2.4-.8.4-.9 0l-.6-1.5c-.5-1.2-1.4-2.1-2.6-2.6l-1.5-.6c-.4-.2-.4-.8 0-.9l1.5-.6c1.3-.4 2.2-1.4 2.7-2.5z" class="colorffde39 svgShape"></path><circle cx="23" cy="77" r="2" fill="#ffffff" class="colorffffff svgShape"></circle><circle cx="106" cy="70" r="2" fill="#ffffff" class="colorffffff svgShape"></circle></svg>