<svg xmlns="http://www.w3.org/2000/svg" viewBox="0 0 128 128" id="Medal"><circle cx="64" cy="64" r="60" fill="#8526fe" class="color382673 svgShape"></circle><circle cx="64" cy="64" r="50" fill="#673080" class="color473080 svgShape"></circle><path fill="#fead32" d="M47 34h34v24H47z" class="colorfec632 svgShape"></path><circle cx="64" cy="76" r="33.5" fill="#ffb039" class="colorffde39 svgShape"></circle><circle cx="64" cy="76" r="27.2" fill="#fead32" class="colorfec632 svgShape"></circle><path fill="#d8a353" d="M37.7 77.8c0-15 12.2-27.2 27.2-27.2 10.3 0 19.2 5.7 23.8 14.1C84.4 55.4 75 48.8 64 48.8 49 48.8 36.8 61 36.8 76c0 4.7 1.2 9.2 3.4 13.1-1.6-3.5-2.5-7.3-2.5-11.3z" class="colorf9a74e svgShape"></path><circle cx="64" cy="76" r="22.6" fill="#ffb039" class="colorffde39 svgShape"></circle><path fill="#d8a353" d="M47 38h34v3H47z" class="colorf9a74e svgShape"></path><path fill="#5fe4d4" d="m64 84.2 6.9 3.6c1 .5 2.2-.3 2-1.5l-1.3-7.7 5.6-5.4c.8-.8.4-2.2-.8-2.4l-7.7-1.1-3.4-7c-.5-1-2-1-2.5 0l-3.4 7-7.7 1.1c-1.1.2-1.6 1.6-.8 2.4l5.6 5.4-1.3 7.7c-.2 1.1 1 2 2 1.5l6.8-3.6z" class="colorffffff svgShape"></path><path fill="#ad59d4" d="M36.5 10.6 49 35h30L63.1 4c-9.6.1-18.6 2.5-26.6 6.6z" class="colord44a90 svgShape"></path><path fill="#7f29a7" d="m61.9 4.1-14.4 28L49 35h27l1.5-2.9L63.1 4c-.4 0-.8 0-1.2.1z" class="colora72973 svgShape"></path><path fill="#ffb039" d="M80.1 40H47.9c-2.2 0-3.9-1.8-3.9-3.9V36c0-2.2 1.8-3.9 3.9-3.9H80c2.2 0 3.9 1.8 3.9 3.9v.1c.1 2.1-1.7 3.9-3.8 3.9z" class="colorffde39 svgShape"></path><path fill="#673080" d="M47.9 37c-.5 0-.9-.4-.9-.9V36c0-.5.4-.9.9-.9H80c.5 0 .9.4.9.9v.1c0 .5-.4.9-.9.9H47.9z" class="color473080 svgShape"></path><path fill="#c15af1" d="M49 35h30l12.5-24.4c-8-4.1-17-6.5-26.6-6.6L49 35z" class="colorf15a9e svgShape"></path></svg>